<svg xmlns="http://www.w3.org/2000/svg" xmlns:xlink="http://www.w3.org/1999/xlink" viewBox="0 0 1198.16 1129"><defs><style>.cls-1{fill:#d42300;}</style></defs><title>logo2</title><g id="Capa_4" data-name="Capa 4"><path class="cls-1" d="M487.18,442H503c6.49,0,13,.06,19.46,0a2.39,2.39,0,0,1,2.71,1.94q2.85,8.28,5.91,16.48c3.68,9.91,7.42,19.8,11.14,29.69q5,13.35,10.06,26.68,5.25,14,10.49,27.89t10.5,27.88a14.21,14.21,0,0,0,2.14,3.67v-134h38.76V666.49c-6.85.72-13.64,1.41-20.43,2.14-6.58.69-13.17,1.35-19.74,2.17-1.89.24-2.74-.22-3.35-2.1-2-6.09-4.13-12.12-6.29-18.15-3.47-9.68-7-19.35-10.52-29-3.1-8.53-6.23-17-9.32-25.58-3.87-10.67-7.68-21.37-11.6-32-2-5.51-4.23-10.95-6.58-17V676.29l-39.12,5.11Z" transform="translate(-325 33)"/><path class="cls-1" d="M1278,442h2.3c12.55,0,25.09,0,37.64,0,1.65,0,2.47.4,3.1,2,4.27,10.91,8.65,21.77,13,32.64q5.15,12.82,10.37,25.64a18.73,18.73,0,0,0,1.46,2.36c.54-1.11,1-2,1.39-2.86,2.43-5.61,4.81-11.25,7.29-16.85q5.37-12.16,10.87-24.29c2.56-5.68,5.19-11.34,7.76-17,.43-.94.78-1.65,2.1-1.64,13.48.06,27,0,40.43,0a8.85,8.85,0,0,1,1,.14c-.26.69-.46,1.32-.72,1.93-2.34,5.42-4.65,10.86-7,16.26-3.57,8-7.19,16.06-10.79,24.08q-5.1,11.35-10.23,22.7t-10.31,22.9c-3.49,7.76-7,15.54-10.52,23.27a4.71,4.71,0,0,0,0,4c3,7.68,5.94,15.4,9,23.07,3.38,8.51,6.86,17,10.29,25.45s6.81,16.84,10.22,25.25q5.37,13.32,10.76,26.64c2.85,7,5.74,14,8.6,21.07.29.7.54,1.43.94,2.52l-12.94-1.65c-9.68-1.25-19.35-2.53-29-3.7-1.74-.21-2.78-.74-3.39-2.5-1.32-3.84-2.86-7.6-4.36-11.36q-5.24-13-10.51-26.06-5.19-12.83-10.41-25.63c-.69-1.69-1.6-3.28-2.58-5.26-.42.85-.77,1.48-1,2.13-2,4.7-4,9.43-6.11,14.11q-5.49,12.35-11.06,24.67c-3.17,7-6.41,14.06-9.51,21.14-.66,1.52-1.4,1.83-3,1.65-12-1.29-24.09-2.44-36.14-3.64-.83-.09-1.65-.25-2.74-.42l1.83-4.28c2-4.71,4-9.44,6.08-14.12,3.57-8,7.19-16.06,10.8-24.08q5.07-11.25,10.15-22.49c3.5-7.77,7-15.54,10.47-23.3,3.06-6.79,6.19-13.54,9.16-20.37a5,5,0,0,0,.06-3.39q-3.73-10.11-7.74-20.13c-3.38-8.5-6.85-17-10.29-25.45s-6.81-16.83-10.21-25.25q-5.38-13.32-10.77-26.64c-1.55-3.8-3.21-7.55-4.81-11.32C1278.41,443.46,1278.25,442.86,1278,442Z" transform="translate(-325 33)"/><path class="cls-1" d="M971.65,479.15v48.44h52.8v37h-52.8v85.22H932.48V442.19h108.7v37Z" transform="translate(-325 33)"/><path class="cls-1" d="M786.19,442.17h120.6v37H866.34V651l-39.28,1.17v-173H786.19Z" transform="translate(-325 33)"/><path class="cls-1" d="M1172.86,620.22V657l-13-.74c-13.37-.72-26.74-1.53-40.12-2.15-16.86-.77-33.73-1.41-50.6-2-1.79-.07-2.41-.52-2.41-2.44q.07-102.66,0-205.32c0-.7.06-1.39.1-2.21H1106v3q0,84.06,0,168.11c0,3.73-.42,3.27,3.47,3.48q31.26,1.68,62.52,3.42A7,7,0,0,1,1172.86,620.22Z" transform="translate(-325 33)"/><path class="cls-1" d="M1205.44,442.14h39V662.32l-39-3.08Z" transform="translate(-325 33)"/></g><g id="Capa_3" data-name="Capa 3"><image width="348" height="196" transform="matrix(2.3, 1.69, -2.03, 2.76, 397.21, 0)" xlink:href="png-clipart-eye-patch-illustration-eyepatch-eye-face-people-thumbnail.png"/></g></svg>