<svg width="225" height="75" viewBox="0 0 225 75" fill="none" xmlns="http://www.w3.org/2000/svg">
<g filter="url(#filter0_d_56_52)">
<path d="M33 53.4474L28.1675 53.9767C26.7363 54.1389 25.3051 54.2819 23.874 54.4536C23.79 54.4817 23.701 54.4913 23.613 54.4819C23.5249 54.4724 23.44 54.4441 23.3639 54.3989C23.2878 54.3536 23.2224 54.2924 23.1721 54.2196C23.1218 54.1467 23.0879 54.0639 23.0725 53.9767C19.7968 44.5382 16.5099 35.1012 13.2119 25.6659C13.1497 25.4637 13.0457 25.2768 12.9066 25.1175V55.784L4 57V0.0110599H4.56292C6.99112 0.0110599 9.41931 0.0110599 11.8523 0.0110599C12.036 -0.0214974 12.2252 0.0184615 12.38 0.122525C12.5348 0.226588 12.6432 0.386637 12.6823 0.56898C16.4034 10.9326 20.1387 21.2915 23.8883 31.6456C23.9243 31.7672 23.9937 31.8763 24.0887 31.9603V0.0539769H33V53.4474Z" fill="#E4141A"/>
</g>
<g filter="url(#filter1_d_56_52)">
<path d="M215 57L211.944 56.5898C209.739 56.2988 207.535 55.9935 205.33 55.7216C205.148 55.7203 204.97 55.6613 204.824 55.5532C204.678 55.4451 204.57 55.2935 204.517 55.1205C202.476 49.8541 200.421 44.5909 198.351 39.3309L198.129 38.7918L191.473 54.0567L182 53.1027C182.303 52.3967 182.578 51.767 182.852 51.1326C186.308 43.1821 189.765 35.2459 193.225 27.3241C193.302 27.158 193.342 26.9774 193.342 26.7946C193.342 26.6117 193.302 26.4311 193.225 26.2651C189.859 17.6786 186.499 9.09999 183.146 0.529381L182.958 0.00942024H184.19C186.828 0.00942024 189.485 0.00942024 192.108 0.00942024C192.287 -0.019683 192.47 0.0192105 192.62 0.1183C192.771 0.217389 192.879 0.369346 192.921 0.543692C194.712 5.18041 196.531 9.80758 198.341 14.4348C198.399 14.5779 198.457 14.7162 198.558 14.9499C198.668 14.7257 198.755 14.5731 198.822 14.4109C200.839 9.79327 202.861 5.17087 204.854 0.543692C204.903 0.370455 205.014 0.220854 205.166 0.122615C205.319 0.0243755 205.502 -0.0158405 205.681 0.00942024C208.569 0.00942024 211.457 0.00942024 214.369 0.00942024H214.981C214.87 0.286097 214.788 0.51507 214.692 0.734503C210.957 9.32101 207.218 17.8948 203.477 26.4559C203.396 26.6202 203.352 26.7997 203.347 26.9823C203.342 27.1649 203.377 27.3465 203.448 27.5149C207.241 37.1668 211.024 46.8186 214.798 56.4705C214.875 56.6041 214.923 56.7663 215 57Z" fill="#E4141A"/>
</g>
<g filter="url(#filter2_d_56_52)">
<path d="M113.969 8.7171V20.1415H126.093V28.8727H113.95V49H105V0H130V8.7171H113.969Z" fill="#E4141A"/>
</g>
<g filter="url(#filter3_d_56_52)">
<path d="M89.8849 48.7289L81.1337 49V8.65586H72V0H99V8.61847H89.8849V48.7289Z" fill="#E4141A"/>
</g>
<g filter="url(#filter4_d_56_52)">
<path d="M160 42.2775V51L155.285 50.7149C152.857 50.5772 150.429 50.4252 148.001 50.3159C144.182 50.1354 140.362 49.977 136.539 49.8408C136.139 49.8408 136.002 49.7078 136.002 49.285C136.002 33.034 136.002 16.7831 136.002 0.532153C136.002 0.261357 135.95 -0.00468812 136.384 6.26914e-05C139.123 6.26914e-05 141.858 6.26914e-05 144.592 6.26914e-05C144.673 0.0101783 144.753 0.0244494 144.833 0.04282V40.6812C144.833 41.4034 144.833 41.3844 145.53 41.4224L159.793 42.2395C159.863 42.2468 159.932 42.2595 160 42.2775Z" fill="#E4141A"/>
</g>
<g filter="url(#filter5_d_56_52)">
<path d="M176 52L167 51.2667V0H176V52Z" fill="#E4141A"/>
</g>
<g filter="url(#filter6_d_56_52)">
<path d="M35 22.7755C34.9534 22.9655 34.8974 23.1555 34.8648 23.3547C34.8322 23.554 34.4639 24.0266 34.3707 23.9988C33.6574 23.7671 33.2099 23.0164 32.5059 22.7616C31.5129 22.4094 30.1097 22.4604 29.1307 22.0294C27.9513 21.5058 26.3989 21.288 25.2427 20.6393C24.3104 20.1203 22.758 19.9581 21.8349 19.3696C21.3268 19.0499 20.3478 18.5031 19.8537 18.1462C18.9493 17.4975 18.4085 16.7561 17.5227 16.0332C16.5344 15.2037 16.2174 13.8645 15.285 12.9146C14.3527 11.9647 12.4879 11.2835 11.6162 10.2177C10.3994 8.75338 9.92857 7.22421 8.86567 5.58382C8.10113 4.40681 7.72352 2.48376 7.03357 1.24651C6.85642 0.931408 7.44381 0.486557 7.32726 0.134382L7.90067 0C8.36685 0.987015 8.45077 2.18255 9.01485 3.10469C11.983 7.92568 15.8015 12.175 20.2872 15.6486C23.9423 18.4569 28.0373 20.6487 32.408 22.136C33.0933 22.377 33.9977 22.4743 34.6877 22.6967C34.7895 22.7311 34.894 22.7574 35 22.7755V22.7755Z" fill="#404040"/>
</g>
<g filter="url(#filter7_d_56_52)">
<path d="M114 12.8787C113.126 13.0948 112.314 13.4645 111.464 13.7334C110.613 14.0023 109.782 14.3144 108.937 14.5977C107.663 15.0298 106.38 15.4539 105.087 15.8701C104.638 16.0189 104.179 16.1534 103.725 16.283C101.882 16.8016 100.071 17.4162 98.2179 17.9059C97.3295 18.1412 96.4506 18.4293 95.5621 18.6694C93.6514 19.1928 91.7408 19.6777 89.8301 20.1915C87.2459 20.8877 84.6331 21.4735 82.025 22.0641C80.9599 22.3042 79.8947 22.5443 78.8247 22.7603C78.4139 22.8371 77.9983 22.8852 77.5875 22.9812C77.3678 23.034 77.2149 22.9812 77.172 22.7507C77.1295 22.5857 77.0719 22.4249 77 22.2706C80.0618 21.6848 83.0998 21.0029 86.1282 20.2779C91.5736 18.9767 96.9617 17.4834 102.312 15.8413C106.171 14.6553 110.002 13.3925 113.775 12L114 12.8787Z" fill="#404040"/>
</g>
<g filter="url(#filter8_d_56_52)">
<path d="M71.0605 17.0132C71.1812 16.9811 71.2215 17.0132 71.2556 17.049L71.9522 17.6814C72.0358 17.7564 71.9925 17.8278 71.9522 17.8886C71.912 17.9493 71.8438 18.0565 71.7386 17.9636C71.5273 17.7369 71.3005 17.5302 71.0605 17.3455C71.0479 17.339 71.0365 17.3296 71.0271 17.3179C71.0178 17.3062 71.0105 17.2924 71.0059 17.2774C71.0013 17.2623 70.9993 17.2464 71.0002 17.2304C71.0011 17.2145 71.0047 17.199 71.011 17.1847L71.0605 17.0132Z" fill="#404040"/>
</g>
<g filter="url(#filter9_d_56_52)">
<path d="M58.8724 14.8526L58.1197 15C58.0142 15 58.0225 14.7399 58.0059 14.5406C57.9892 14.3412 58.0059 14.1418 58.0836 14.0985C58.3695 14.003 58.6574 13.9769 58.9446 14.0205C59.0224 14.0205 58.9946 14.2198 58.9974 14.3672C59.0002 14.5146 58.9752 14.8353 58.8724 14.8526Z" fill="#404040"/>
</g>
<g filter="url(#filter10_d_56_52)">
<path d="M61.2077 14C61.7587 14.0168 62.3081 14.0916 62.8513 14.2238C63.0814 14.3086 62.9773 14.571 62.9718 14.7639C62.9663 14.9568 62.8842 15.0185 62.7417 14.9954C62.2377 14.9028 61.7282 14.8333 61.2186 14.7639C61.0652 14.7639 60.9776 14.6944 61.005 14.4552C61.0324 14.2161 60.994 14.0386 61.2077 14Z" fill="#404040"/>
</g>
<g filter="url(#filter11_d_56_52)">
<path d="M74.9898 20.8184C75.0512 20.9235 74.821 20.9355 74.6905 20.9715C74.6579 20.9835 74.6181 20.9921 74.5748 20.9966C74.5315 21.001 74.4861 21.0011 74.4426 20.997C74.3992 20.9928 74.3591 20.9844 74.326 20.9727C74.2929 20.9609 74.2678 20.946 74.2531 20.9295C73.9228 20.6981 73.5428 20.4782 73.1173 20.272C72.8947 20.1609 73.0175 20.1038 73.2477 20.0348C73.478 19.9657 73.6084 20.0078 73.7466 20.0888C74.1568 20.2998 74.5335 20.5204 74.8747 20.7494C74.9077 20.7737 74.9462 20.7968 74.9898 20.8184Z" fill="#404040"/>
</g>
<g filter="url(#filter12_d_56_52)">
<path d="M44.4228 16.9666C44.2159 17.0647 44.1125 16.9323 44.0205 16.7556C43.9286 16.579 44.1699 16.5348 44.2676 16.4955C44.6986 16.3287 45.1469 16.1864 45.5894 16.0392C45.7445 15.9901 45.9055 15.9509 45.9629 16.157C46.0204 16.363 46.0376 16.4514 45.8135 16.5201L44.4228 16.9666Z" fill="#404040"/>
</g>
<g filter="url(#filter13_d_56_52)">
<path d="M69 16.3158C69.0008 16.5136 68.9778 16.7052 68.9355 16.853C68.9033 17.0351 68.8564 17.026 68.8037 16.9441L68.0802 15.897C67.9689 15.7331 67.9952 15.4872 68.0304 15.1958C68.0655 14.9045 68.13 15.0046 68.2032 15.0775C68.4447 15.3392 68.678 15.6684 68.9004 16.0609C68.9354 16.1388 68.9686 16.224 69 16.3158V16.3158Z" fill="#404040"/>
</g>
<g filter="url(#filter14_d_56_52)">
<path d="M41.4174 18.9574C41.2332 19.0644 41.1501 18.9574 41.0669 18.7763C40.9837 18.5953 40.96 18.4225 41.1025 18.299C41.5837 17.8793 42.0649 17.4761 42.552 17.0564C42.7184 16.9165 42.8253 17.0564 42.9144 17.2621C43.0035 17.4679 43.0511 17.616 42.9144 17.7477C42.4214 18.1674 41.8986 18.6117 41.4174 18.9574Z" fill="#404040"/>
</g>
<g filter="url(#filter15_d_56_52)">
<path d="M55.973 14.343C56.0457 14.6217 55.973 14.7998 55.738 14.8308C55.3185 14.8773 54.899 14.9547 54.4795 14.9934C54.2781 14.9934 54.0432 15.0786 54.004 14.6372C53.9648 14.1959 54.2222 14.2423 54.39 14.2036C54.8375 14.1184 55.285 14.072 55.7269 14.0023C55.9059 13.9791 55.945 14.1339 55.973 14.343Z" fill="#404040"/>
</g>
<g filter="url(#filter16_d_56_52)">
<path d="M48.5358 15.7871C48.4109 15.8453 48.2859 15.9035 48.1637 15.9734C48.0415 16.0433 48.0303 15.9734 48.0081 15.7871C47.9859 15.6007 48.0081 15.5017 48.0887 15.4493C48.3192 15.3154 48.547 15.1698 48.7775 15.03C48.8886 14.9601 48.9636 15.0009 48.9941 15.2746C49.0247 15.5483 48.9303 15.5832 48.8414 15.6298L48.5331 15.7812L48.5358 15.7871Z" fill="#404040"/>
</g>
<g filter="url(#filter17_d_56_52)">
<path d="M39.208 21C39.1244 21 39.086 20.9468 39.0408 20.9002C39.0279 20.8887 39.0176 20.8748 39.0106 20.8594C39.0036 20.8439 39 20.8273 39 20.8104C39 20.7936 39.0036 20.777 39.0106 20.7615C39.0176 20.7461 39.0279 20.7322 39.0408 20.7207C39.2431 20.4798 39.4682 20.2572 39.713 20.0556C39.7966 19.999 39.8733 19.9658 39.9395 20.0556C40.0056 20.1453 40.0335 20.2019 39.9395 20.2817L39.2428 20.9701C39.2324 20.9813 39.2207 20.9913 39.208 21V21Z" fill="#404040"/>
</g>
<g filter="url(#filter18_d_56_52)">
<path d="M26.6139 21.2632C25.2121 20.6416 23.8838 19.8635 22.6538 18.9435C20.9918 17.6422 19.4117 16.2379 17.9226 14.7386C16.8912 13.5788 15.2494 12.3522 14.2653 11.2544C13.4705 10.3571 10.2911 6.73453 9.06096 4.80151C8.34452 3.73119 7.79558 2.55605 7.43341 1.31731C7.29692 0.88972 7.2096 0.447714 7.17319 0C6.27899 0 5.14349 0.038183 4.24455 0C4.00326 0 4.01745 0.18137 4.01272 0.391376C3.96541 2.67281 4.0695 4.93993 4.01272 7.22136C4.14047 7.30727 6.06608 9.93236 7.14007 10.8917C12.6425 15.8078 13.7638 16.6192 19.5075 21.2679C23.8745 24.8046 29.3816 26.6422 34.4677 29C35.2673 26.7377 34.9976 26.7377 34.7374 24.0601C33.4505 23.3537 28.3171 22.0411 26.6139 21.2632Z" fill="#040404"/>
</g>
<g filter="url(#filter19_d_56_52)">
<path d="M113.737 12C112.994 12.19 107.373 14.3096 106.649 14.5581C105.926 14.8066 105.239 15.0892 104.511 15.3475C103.424 15.7438 102.337 16.1303 101.249 16.5071C100.869 16.6436 100.483 16.7654 100.093 16.8823C98.5328 17.3696 97.0006 17.9105 95.4261 18.3441C94.6742 18.5536 93.9316 18.8314 93.1749 19.036C91.5582 19.5233 89.9367 19.9326 88.3199 20.3857C86.1251 21.0094 83.9021 21.521 81.6837 22.0327C80.7814 22.2422 79.8743 22.4615 78.9625 22.6369C78.6147 22.7002 78.2622 22.7392 77.9144 22.822C77.8749 22.8383 77.8322 22.8447 77.7898 22.8404C77.7474 22.8362 77.7067 22.8216 77.6708 22.7978C77.635 22.774 77.6051 22.7417 77.5838 22.7035C77.5624 22.6654 77.5501 22.6225 77.5479 22.5784C77.5052 22.4125 77.4518 22.2497 77.3881 22.0911C77.3364 21.9352 77.2847 21.7793 77.2283 21.6039C77.1922 21.571 77.1647 21.5292 77.1482 21.4823C77.1318 21.4355 77.127 21.3851 77.1343 21.3359C77.1142 21.2515 77.0891 21.1685 77.0591 21.0874C76.3268 19.2532 75.1732 17.6323 73.6987 16.3658C71.3677 14.3975 68.5869 13.0852 65.6243 12.5555C63.1456 12.0809 60.6185 11.9368 58.1045 12.1267C54.136 12.3125 50.2051 13.0081 46.4019 14.1975C44.1448 14.8825 42.0111 15.9458 40.0853 17.3452C38.0838 18.7482 36.5775 20.7887 35.7943 23.1582C35.7238 23.3726 35.6345 23.5919 35.5781 23.8112C35.5217 24.0304 35.3901 23.972 35.2679 23.9427L35 23.8745V28.9859L35.2303 29.0346C35.3385 29.0427 35.4406 29.0893 35.5194 29.1666C35.5983 29.2438 35.6489 29.347 35.6627 29.4585C36.1749 31.8543 37.1484 34.1182 38.5249 36.1145C41.7387 40.9878 46.4955 44.5421 51.9712 46.1618C54.7996 47.0584 57.794 47.2388 60.7035 46.688C63.7079 46.108 66.5046 44.6953 68.7967 42.5999C72.0778 39.754 74.6939 36.1738 76.4481 32.1287C76.9755 30.8813 77.3558 29.5725 77.5808 28.2306C77.5843 28.1353 77.6227 28.045 77.6882 27.978C77.7537 27.9111 77.8413 27.8724 77.9332 27.87C79.8132 27.529 81.6931 27.1197 83.5449 26.6909C89.3821 25.3558 95.1394 23.7235 100.84 21.8573C103.137 21.1069 105.431 20.3175 107.721 19.4892C108.445 19.2212 113.248 16.6192 114 16.4292C113.763 14.9664 113.675 13.4819 113.737 12V12ZM37.2747 23.743C37.4533 23.3434 37.6319 22.9438 37.8152 22.5443C37.8622 22.442 37.9186 22.3396 38.0549 22.442C38.1912 22.5443 38.2946 22.5687 38.2288 22.7197C38.0294 23.1375 37.8536 23.567 37.7024 24.0061C37.7024 24.0451 37.646 24.0743 37.6225 24.1035C37.497 24.0982 37.3759 24.0541 37.2747 23.9768C37.1854 23.8989 37.2418 23.8209 37.2747 23.743ZM36.7107 27.3341C36.7124 26.8912 36.7375 26.4487 36.7859 26.0087C36.7859 25.843 36.8846 25.7992 37.0162 25.7943C37.0422 25.7909 37.0685 25.7929 37.0937 25.8002C37.1189 25.8074 37.1425 25.8198 37.1631 25.8366C37.1836 25.8533 37.2007 25.8742 37.2135 25.8979C37.2262 25.9216 37.2342 25.9477 37.2371 25.9746C37.2371 26.4619 37.2089 26.9199 37.1807 27.3877C37.1807 27.5777 36.9927 27.5533 36.8705 27.5582C36.7483 27.5631 36.7154 27.4656 36.7107 27.3341ZM37.5473 31.0665C37.317 31.1298 37.2606 30.9788 37.2183 30.7936C37.176 30.6084 37.1384 30.4087 37.0773 30.2089C37.0303 30.014 36.9927 29.8191 36.941 29.6339C36.8893 29.4488 36.941 29.3562 37.1337 29.3269C37.3264 29.2977 37.4251 29.3611 37.4251 29.5462C37.438 29.9272 37.5243 30.3016 37.6789 30.6474C37.7682 30.8228 37.7964 30.9982 37.5473 31.0665ZM38.9197 34.2678C38.8069 34.336 38.6847 34.4432 38.5954 34.2678C38.3933 33.8633 38.2006 33.4589 38.0032 33.0545C37.9907 33.0187 37.9854 32.9807 37.9874 32.9427C37.9894 32.9047 37.9989 32.8675 38.0151 32.8334C38.0313 32.7992 38.0541 32.7689 38.0819 32.7441C38.1097 32.7193 38.1421 32.7005 38.1771 32.689C38.3604 32.6013 38.3933 32.7573 38.4497 32.8791C38.633 33.2591 38.8069 33.6489 39.0043 34.0241C39.0889 34.1606 39.0278 34.2093 38.9244 34.2678H38.9197ZM39.2957 21.1118C39.1829 21.1118 39.1312 21.0338 39.0701 20.9656C39.0527 20.9487 39.0389 20.9283 39.0294 20.9057C39.02 20.8831 39.0151 20.8587 39.0151 20.834C39.0151 20.8093 39.02 20.7849 39.0294 20.7623C39.0389 20.7397 39.0527 20.7193 39.0701 20.7025C39.3431 20.3496 39.6467 20.0234 39.9772 19.7279C40.09 19.6451 40.1933 19.5964 40.2826 19.7279C40.3719 19.8595 40.4095 19.9423 40.2826 20.0593L39.3427 21.0679C39.3293 21.0773 39.3151 21.0854 39.3004 21.0923L39.2957 21.1118ZM40.809 37.2254C40.7103 37.2985 40.6257 37.3326 40.5317 37.2254C40.227 36.8563 39.9474 36.4655 39.6952 36.056C39.6482 35.9829 39.6482 35.9098 39.7281 35.866C39.808 35.8221 39.9114 35.6662 40.0054 35.7539C40.3409 36.1409 40.6548 36.5477 40.9453 36.972C40.9829 37.1328 40.8842 37.167 40.809 37.2254ZM61.5871 13.837C62.0598 13.8476 62.5311 13.8948 62.9971 13.9783C63.1945 14.0319 63.1052 14.1975 63.1005 14.3194C63.0958 14.4412 63.0253 14.4801 62.9031 14.4655C62.4707 14.4071 62.0336 14.3632 61.5965 14.3194C61.4649 14.3194 61.3897 14.2755 61.4132 14.1245C61.4367 13.9734 61.4038 13.8662 61.5871 13.8418V13.837ZM58.128 13.837C58.6119 13.7833 59.099 13.7686 59.585 13.7931C59.7166 13.7931 59.6696 13.9052 59.6743 13.988C59.679 14.0709 59.632 14.2511 59.4628 14.2609L58.1891 14.3437C58.0105 14.3437 58.0246 14.1975 57.9964 14.0855C57.9682 13.9734 57.987 13.8808 58.128 13.8565V13.837ZM54.9368 14.1293C55.3128 14.0757 55.6888 14.0465 56.0601 14.0026C56.2105 14.0026 56.2434 14.0855 56.2669 14.217C56.2904 14.3486 56.2669 14.5045 56.0695 14.524C55.717 14.5532 55.3645 14.602 55.012 14.6263C54.8428 14.6263 54.6454 14.6799 54.6125 14.4022C54.5796 14.1245 54.7817 14.1293 54.9368 14.1293ZM51.4824 14.6166H51.6469L52.6104 14.4607C52.7655 14.4314 52.8689 14.4607 52.8595 14.6604C52.8501 14.8602 52.8971 14.9577 52.6574 14.943C52.272 14.943 51.9195 15.1379 51.5341 15.1282C51.3696 15.1282 51.2286 15.1623 51.1957 14.9284C51.1628 14.6945 51.3508 14.6848 51.4824 14.6166ZM55.012 16.6826C56.6276 15.9945 58.4189 15.887 60.1003 16.3771C61.7817 16.8672 63.2565 17.9268 64.2895 19.3869C64.82 20.212 65.183 21.1403 65.3564 22.1155C65.5272 22.845 65.5277 23.6062 65.3576 24.3359C65.1876 25.0656 64.852 25.7426 64.3788 26.3108C64.0051 26.7796 63.5374 27.1584 63.0082 27.4209C62.4791 27.6834 61.9011 27.8234 61.3145 27.8311C60.9382 27.7908 60.5607 27.8936 60.252 28.1203C59.9434 28.3471 59.7247 28.6824 59.6367 29.0638C59.5714 29.3283 59.4401 29.5703 59.256 29.7655C59.1359 29.9138 58.9774 30.0234 58.7992 30.0813C58.6209 30.1391 58.4304 30.1428 58.2502 30.0919C58.079 30.0344 57.9273 29.9272 57.8132 29.7829C57.6991 29.6387 57.6273 29.4635 57.6063 29.2782C57.577 28.9588 57.5091 28.6445 57.4042 28.3427C57.3055 28.1478 57.2069 27.9577 56.9719 27.9529C56.8632 27.9583 56.7584 27.9968 56.6707 28.0635C56.5829 28.1302 56.5161 28.2222 56.4784 28.3281C56.3793 28.5792 56.3237 28.8463 56.3139 29.1174C56.3067 29.2901 56.2604 29.4586 56.1787 29.6092C56.0971 29.7599 55.9824 29.8886 55.8439 29.9847C55.6976 30.0949 55.5244 30.1602 55.3441 30.1731C55.1637 30.186 54.9835 30.1461 54.824 30.0578C54.6588 29.9699 54.5224 29.8332 54.4321 29.6649C54.3417 29.4967 54.3015 29.3045 54.3164 29.1126C54.3164 28.791 54.4057 28.4791 54.4245 28.138C54.4543 27.9839 54.4254 27.8238 54.344 27.6912C54.2625 27.5586 54.1348 27.4638 53.9874 27.4266C53.6444 27.3438 53.5175 27.6118 53.3718 27.87C53.2301 28.1966 53.0485 28.5028 52.8313 28.7812C52.7573 28.8946 52.6508 28.9811 52.5268 29.0283C52.4028 29.0755 52.2676 29.0811 52.1404 29.0443C52.0068 28.9999 51.8887 28.9157 51.8009 28.8022C51.7132 28.6887 51.6596 28.5509 51.6469 28.406C51.6163 28.0996 51.6354 27.7899 51.7033 27.49C51.9449 26.4292 51.8828 25.3183 51.5247 24.2936C50.4155 21.2141 52.1169 17.9982 55.012 16.7021V16.6826ZM47.9951 15.4644C48.3852 15.3523 48.7706 15.2305 49.1607 15.1136C49.3487 15.0551 49.4756 15.0892 49.5273 15.3182C49.579 15.5472 49.4192 15.5765 49.2688 15.6155L48.7471 15.7422C48.5356 15.7909 48.3241 15.8396 48.1173 15.8981C47.9105 15.9565 47.8917 15.8981 47.8541 15.7422C47.8165 15.5862 47.84 15.5278 47.9951 15.4839V15.4644ZM44.8227 16.59C45.1752 16.4243 45.5418 16.283 45.9037 16.1368C46.0306 16.0881 46.1622 16.0491 46.2092 16.2538C46.2562 16.4584 46.2703 16.5461 46.087 16.6143L44.9496 17.0578C44.7804 17.1552 44.6958 17.0236 44.6206 16.8482C44.5454 16.6728 44.7428 16.6485 44.8227 16.6095V16.59ZM41.6456 18.6121C41.5704 18.5 41.561 18.4026 41.6738 18.3295C42.0545 18.081 42.4352 17.8422 42.8206 17.5937C42.9522 17.5109 43.0368 17.5937 43.1073 17.7156C43.1778 17.8374 43.2154 17.9251 43.1073 18.003C42.7125 18.2515 42.3177 18.4903 41.937 18.7193C41.7772 18.7827 41.7114 18.7193 41.6456 18.6121ZM43.2342 39.7592C43.2139 39.7903 43.1867 39.8158 43.1547 39.8335C43.1227 39.8511 43.0871 39.8604 43.0509 39.8604C43.0147 39.8604 42.979 39.8511 42.947 39.8335C42.9151 39.8158 42.8878 39.7903 42.8676 39.7592L41.9981 38.887C41.9323 38.8188 41.8524 38.7408 41.9276 38.6336C41.9895 38.5553 42.0554 38.4805 42.125 38.4095C42.1936 38.4401 42.2583 38.4793 42.3177 38.5264C42.6138 38.809 42.9005 39.1062 43.206 39.384C43.2377 39.4018 43.2646 39.4276 43.2843 39.459C43.3039 39.4903 43.3157 39.5263 43.3185 39.5636C43.3213 39.6009 43.315 39.6384 43.3003 39.6725C43.2856 39.7067 43.2628 39.7365 43.2342 39.7592V39.7592ZM45.8661 42.0249C45.7909 42.1175 45.711 42.0249 45.6452 42.0249C45.288 41.7618 44.9355 41.4889 44.5783 41.2209C44.4514 41.1284 44.4702 41.0212 44.5454 40.9042C44.5581 40.8756 44.5772 40.8506 44.601 40.831C44.6249 40.8115 44.6528 40.7982 44.6826 40.792C44.7124 40.7858 44.7432 40.787 44.7724 40.7955C44.8017 40.804 44.8286 40.8196 44.8509 40.8409L45.9366 41.6108C45.9742 41.6351 45.9977 41.6838 46.0212 41.7082C46.0076 41.8296 45.9526 41.9419 45.8661 42.0249V42.0249ZM48.968 43.4867C48.921 43.5842 48.9257 43.7108 48.8035 43.7644C48.7753 43.7644 48.733 43.7644 48.7048 43.7644C48.2912 43.5257 47.84 43.3698 47.4452 43.092C47.3136 42.9994 47.37 42.9069 47.4452 42.8094C47.5204 42.712 47.5533 42.6096 47.6943 42.6827L48.9022 43.2869C48.9222 43.2954 48.9402 43.3084 48.9548 43.325C48.9693 43.3416 48.9802 43.3613 48.9865 43.3828C48.9928 43.4042 48.9944 43.4269 48.9912 43.4491C48.988 43.4713 48.9801 43.4925 48.968 43.5111V43.4867ZM51.8631 45.007C51.4448 44.8754 51.0312 44.7195 50.6176 44.5733C50.4202 44.5051 50.4954 44.3833 50.5377 44.2517C50.58 44.1201 50.6599 44.0665 50.8056 44.1201C51.1957 44.2663 51.5905 44.3979 51.9853 44.5343C52.0201 44.5417 52.0526 44.5581 52.0797 44.5819C52.1068 44.6058 52.1277 44.6363 52.1404 44.6707C52.1968 44.8851 52.0417 45.0898 51.8631 45.0313V45.007ZM55.3363 45.7525C54.8381 45.7112 54.3443 45.6247 53.8605 45.4942C53.7431 45.4552 53.7901 45.3285 53.8089 45.236C53.8277 45.1434 53.8793 45.0362 54.025 45.0606L55.3504 45.2555C55.482 45.2555 55.5243 45.3432 55.5008 45.4845C55.4773 45.6258 55.4914 45.733 55.3363 45.8012V45.7525ZM58.6497 45.8061C58.2596 45.8061 57.8648 45.8353 57.4747 45.8402C57.4392 45.8456 57.4029 45.8425 57.3686 45.8311C57.3344 45.8198 57.3031 45.8004 57.2772 45.7745C57.2514 45.7486 57.2315 45.7169 57.2193 45.6818C57.2071 45.6467 57.2029 45.6092 57.2069 45.5722C57.2069 45.3529 57.3384 45.3627 57.4982 45.3627C57.8648 45.3627 58.2314 45.3139 58.598 45.3139C58.7014 45.3139 58.8988 45.1921 58.8988 45.4845C58.8941 45.7086 58.8471 45.8012 58.6497 45.8304V45.8061ZM62.1182 45.1093C61.7087 45.2718 61.2855 45.3941 60.8539 45.4747C60.7129 45.5137 60.6331 45.4357 60.5955 45.2944C60.5579 45.1531 60.5955 45.0216 60.7459 44.9777L61.4038 44.8169C61.6012 44.7682 61.7986 44.7243 61.9913 44.6707C62.0183 44.6581 62.0479 44.6524 62.0775 44.6542C62.1071 44.6559 62.1358 44.6651 62.1612 44.6809C62.1866 44.6967 62.208 44.7187 62.2234 44.7449C62.2388 44.7712 62.2479 44.8009 62.2498 44.8315C62.2874 44.9923 62.2592 45.0654 62.1182 45.1336V45.1093ZM65.3094 43.6962C64.9146 43.9155 64.5151 44.1299 64.1157 44.3394C63.9277 44.4417 63.9089 44.2712 63.8572 44.1543C63.8055 44.0373 63.8572 43.9204 63.9841 43.8521C64.3506 43.6572 64.7172 43.4623 65.0791 43.2577C65.206 43.1846 65.2765 43.2577 65.3423 43.3454C65.4081 43.4331 65.4598 43.6329 65.3094 43.7206V43.6962ZM66.2494 32.4893C66.1668 32.6814 66.0291 32.8426 65.855 32.9507C65.6809 33.0588 65.4789 33.1087 65.2765 33.0935C65.0131 33.109 64.7504 33.0512 64.5157 32.9261C64.2811 32.801 64.0829 32.6132 63.9418 32.3821C63.8478 32.2408 63.7867 32.1628 63.6034 32.2359C61.7516 32.9522 59.8952 33.6587 58.0481 34.3652C58.0481 34.5309 58.1515 34.5357 58.2267 34.5747C59.9704 35.5492 61.7187 36.5238 63.4624 37.4691C63.6456 37.5577 63.85 37.5883 64.0499 37.5568C64.3018 37.5202 64.5585 37.5409 64.8019 37.6174C65.0454 37.694 65.2699 37.8246 65.4598 38.0002C65.6073 38.1174 65.7195 38.2759 65.7832 38.4569C65.847 38.6379 65.8596 38.8341 65.8196 39.0223C65.7797 39.2105 65.6888 39.383 65.5576 39.5195C65.4265 39.6561 65.2605 39.7511 65.0791 39.7933C64.924 39.8274 64.9099 39.9102 64.9052 40.0467C64.9185 40.2544 64.8673 40.4611 64.759 40.6365C64.6508 40.8119 64.4912 40.9467 64.3036 41.0212C64.1198 41.0837 63.9219 41.0859 63.7369 41.0274C63.5518 40.969 63.3887 40.8528 63.2697 40.6947C63.0665 40.5014 62.9205 40.2521 62.8489 39.976C62.7774 39.6999 62.7831 39.4083 62.8655 39.1355C62.9172 38.9454 62.8937 38.8529 62.7198 38.7603C60.6331 37.5909 58.5494 36.4149 56.469 35.2325C56.39 35.182 56.3002 35.1524 56.2076 35.1465C56.1149 35.1405 56.0223 35.1584 55.9379 35.1984C53.635 36.0852 51.332 36.9656 49.0291 37.8394C48.9191 37.8761 48.8191 37.9395 48.7374 38.0242C48.6557 38.1089 48.5945 38.2126 48.5591 38.3266C48.4231 38.7212 48.1717 39.0618 47.84 39.3011C47.6518 39.4569 47.4182 39.5417 47.1773 39.5417C46.9365 39.5417 46.7029 39.4569 46.5147 39.3011C46.3472 39.1356 46.2446 38.9118 46.2264 38.6726C46.2082 38.4335 46.2757 38.1958 46.416 38.005C46.5711 37.7565 46.6275 37.6347 46.3173 37.4642C46.1438 37.3732 46.0067 37.2217 45.9302 37.0363C45.8538 36.851 45.8427 36.6436 45.899 36.4507C45.96 36.2487 46.0792 36.0709 46.2405 35.9411C46.4018 35.8114 46.5975 35.7358 46.8014 35.7247C47.0698 35.7239 47.3352 35.7842 47.5788 35.9012C47.8224 36.0182 48.0383 36.1891 48.2113 36.402C48.2754 36.4865 48.3663 36.5446 48.4679 36.566C48.5695 36.5875 48.6751 36.5708 48.7659 36.5189C50.6458 35.7685 52.5258 35.0571 54.3775 34.297C54.4292 34.297 54.4903 34.258 54.5091 34.1898C54.5279 34.1216 54.3916 34.0729 54.3211 34.0339C52.5634 33.0594 50.8056 32.0507 49.0479 31.0518C48.9498 30.9859 48.8374 30.9464 48.7208 30.937C48.6042 30.9277 48.4872 30.9487 48.3805 30.9982C47.9911 31.1644 47.5591 31.1901 47.1538 31.0713C46.9261 31.0153 46.7228 30.8826 46.5756 30.6939C46.4285 30.5052 46.3459 30.2712 46.3408 30.0286C46.359 29.7905 46.461 29.5676 46.6274 29.4023C46.7938 29.237 47.0129 29.1408 47.2431 29.132C47.5345 29.0979 47.652 29.059 47.5674 28.7033C47.5164 28.5053 47.5358 28.2949 47.6221 28.1106C47.7084 27.9263 47.8558 27.7804 48.0374 27.6995C48.2447 27.6161 48.4726 27.6053 48.6865 27.6686C48.9003 27.7319 49.0883 27.866 49.2218 28.0503C49.504 28.4558 49.6252 28.9582 49.5602 29.4536C49.5359 29.5715 49.5547 29.6946 49.6128 29.799C49.671 29.9034 49.7644 29.9817 49.8751 30.0189C51.9085 31.1233 53.9451 32.2424 55.9849 33.3761C56.081 33.4344 56.1892 33.4679 56.3005 33.4739C56.4117 33.4798 56.5227 33.458 56.6241 33.4102C58.6857 32.5753 60.7553 31.7535 62.8326 30.9446C63.1522 30.8484 63.4328 30.6465 63.6316 30.3697C63.7616 30.1618 63.9344 29.9863 64.1375 29.8557C64.3406 29.7252 64.5691 29.6428 64.8065 29.6144C65.0013 29.5778 65.202 29.5981 65.3862 29.6729C65.5705 29.7478 65.731 29.8743 65.8499 30.0383C65.9642 30.1849 66.0308 30.3652 66.0401 30.5534C66.0493 30.7416 66.0009 30.9281 65.9016 31.086C65.817 31.2273 65.864 31.2955 65.9674 31.3881C66.1298 31.5175 66.2452 31.7003 66.2947 31.9064C66.3442 32.1126 66.3249 32.33 66.24 32.5234L66.2494 32.4893ZM66.1742 15.1038L64.9052 14.7823C64.8159 14.7823 64.7313 14.7189 64.7736 14.6117C64.8159 14.5045 64.8206 14.2999 64.9945 14.3242C65.4632 14.3911 65.9244 14.5054 66.3716 14.6653C66.4186 14.6653 66.4421 14.753 66.475 14.7969C66.4374 14.982 66.4327 15.1672 66.1742 15.1038ZM68.0541 41.6985C67.7486 41.9665 67.4338 42.2198 67.1142 42.483C66.9779 42.5999 66.9074 42.4829 66.8275 42.4001C66.7476 42.3173 66.7194 42.176 66.8275 42.0785C67.1612 41.8057 67.4901 41.5279 67.8285 41.2599C67.9648 41.1527 68.1246 41.2356 68.1669 41.4159C68.2092 41.5961 68.0964 41.6302 68.0353 41.6985H68.0541ZM68.2092 15.8152C68.0306 15.7275 68.0729 15.596 68.1293 15.4401C68.1857 15.2841 68.2891 15.3377 68.4066 15.3767C68.7876 15.5179 69.1556 15.694 69.5064 15.9029C69.5706 15.9437 69.6319 15.9893 69.6897 16.0394C69.6911 16.1452 69.6542 16.2478 69.5863 16.3269C69.5346 16.4243 69.4594 16.4194 69.3748 16.3756L68.2092 15.8152ZM70.5827 39.1745L69.732 40.11C69.6568 40.1977 69.5863 40.2952 69.4735 40.1782C69.3607 40.0613 69.2432 39.9541 69.3748 39.7982C69.671 39.4344 69.9847 39.0864 70.3148 38.7554C70.5122 38.5654 70.5592 38.8821 70.672 38.9406C70.7848 38.999 70.6109 39.116 70.5639 39.1745H70.5827ZM71.1278 17.4914C71.1087 17.4825 71.0915 17.4697 71.0772 17.4538C71.063 17.4378 71.052 17.419 71.045 17.3985C71.0379 17.378 71.035 17.3562 71.0363 17.3345C71.0376 17.3128 71.0432 17.2916 71.0526 17.2721L71.1372 17.0383C71.3205 16.9944 71.3816 17.0383 71.4333 17.087L72.4908 17.9494C72.6177 18.0518 72.5519 18.1492 72.4908 18.232C72.4297 18.3149 72.3263 18.4611 72.1665 18.3344C71.8368 18.0239 71.4832 17.742 71.109 17.4914H71.1278ZM72.7963 36.2412C72.5143 36.6651 72.2323 37.089 71.9362 37.5032C71.8704 37.5957 71.7623 37.5665 71.6871 37.5032C71.6119 37.4398 71.485 37.3083 71.5884 37.1572C71.8563 36.7674 72.1289 36.3825 72.4015 35.9975C72.4391 35.9439 72.4908 35.9098 72.5519 35.9537L72.8151 36.1778C72.8245 36.1973 72.8245 36.2265 72.7963 36.2412ZM74.4272 33.2884C74.258 33.6636 74.0888 34.0387 73.9149 34.4139C73.8397 34.5796 73.7363 34.6186 73.5718 34.5211C73.4073 34.4237 73.365 34.3555 73.4684 34.1752C73.6658 33.8146 73.835 33.4394 74.023 33.0691C74.0653 32.9863 74.0982 32.8645 74.2251 32.9132C74.352 32.9619 74.4365 32.9619 74.4976 33.0935C74.4821 33.1594 74.4633 33.2245 74.4413 33.2884H74.4272ZM74.5211 21.0289C74.5012 21.0484 74.4768 21.0623 74.4503 21.0695C74.4238 21.0767 74.396 21.077 74.3694 21.0702C74.3427 21.0634 74.3182 21.0498 74.2979 21.0307C74.2776 21.0116 74.2623 20.9875 74.2533 20.9607C74.051 20.5852 73.8183 20.2282 73.5577 19.8936C73.4214 19.7133 73.4966 19.6207 73.6376 19.5087C73.7786 19.3966 73.8585 19.4648 73.9431 19.5964C74.1943 19.9387 74.425 20.2967 74.6339 20.6683C74.6542 20.7078 74.6778 20.7453 74.7044 20.7804C74.7561 20.951 74.6151 20.951 74.5352 21.0289H74.5211ZM75.3201 22.6076C75.5128 22.5638 75.5833 22.6417 75.6162 22.8172C75.6491 22.9926 75.7055 23.2021 75.7478 23.3921C75.7901 23.587 75.823 23.7819 75.8794 23.9671C75.9358 24.1522 75.8465 24.2497 75.6632 24.2936C75.4799 24.3374 75.4564 24.1912 75.4423 24.0451C75.3675 23.6726 75.2622 23.3075 75.1274 22.9536C75.0945 22.7587 75.1462 22.6564 75.3342 22.6076H75.3201ZM75.6491 29.9165C75.5363 30.3161 75.4094 30.7108 75.3154 31.1152C75.2543 31.3539 75.1227 31.3052 74.9629 31.2662C74.8031 31.2273 74.7843 31.1249 74.836 30.9641C74.9676 30.5597 75.0804 30.1504 75.1979 29.7411C75.2261 29.6437 75.2543 29.5365 75.3812 29.5657C75.5081 29.5949 75.6209 29.5657 75.6961 29.7021C75.6961 29.7898 75.682 29.8629 75.6632 29.9311L75.6491 29.9165ZM76.0392 27.6313C76.0392 27.7726 75.9828 27.8603 75.8136 27.8359C75.6444 27.8116 75.5457 27.8067 75.5551 27.6118C75.5551 27.1586 75.6303 26.7104 75.6162 26.2523C75.6162 26.0915 75.7478 26.0818 75.8794 26.0915C76.011 26.1013 76.1144 26.1403 76.1097 26.3059L76.0392 27.6313Z" fill="#040404"/>
</g>
<g filter="url(#filter20_d_56_52)">
<path d="M64.8777 22.0061C65.0419 22.7284 65.0407 23.4815 64.8743 24.2033C64.7079 24.9251 64.3809 25.595 63.9204 26.1577C63.5544 26.6238 63.0964 27.0004 62.5782 27.2614C62.06 27.5224 61.494 27.6615 60.9196 27.6692C60.5511 27.6291 60.1813 27.7313 59.879 27.9568C59.5768 28.1822 59.3627 28.5156 59.2765 28.8948C59.2126 29.1577 59.084 29.3983 58.9037 29.5924C58.7861 29.7399 58.6309 29.8488 58.4563 29.9063C58.2818 29.9639 58.0952 29.9675 57.9187 29.917C57.7511 29.8598 57.6026 29.7532 57.4908 29.6098C57.379 29.4663 57.3087 29.2922 57.2882 29.1079C57.2595 28.7904 57.193 28.4779 57.0903 28.1778C56.9936 27.984 56.897 27.7951 56.6669 27.7903C56.5604 27.7957 56.4579 27.8339 56.3719 27.9003C56.286 27.9666 56.2205 28.0581 56.1836 28.1633C56.0866 28.4129 56.0321 28.6786 56.0225 28.9481C56.0155 29.1197 55.9701 29.2872 55.8902 29.437C55.8102 29.5869 55.6979 29.7147 55.5623 29.8104C55.419 29.9199 55.2494 29.9848 55.0728 29.9976C54.8962 30.0105 54.7197 29.9708 54.5635 29.883C54.4017 29.7956 54.2682 29.6597 54.1797 29.4924C54.0912 29.3251 54.0518 29.134 54.0665 28.9432C54.0665 28.6235 54.1539 28.3135 54.1723 27.9744C54.2015 27.8211 54.1732 27.6619 54.0934 27.5301C54.0137 27.3983 53.8886 27.304 53.7443 27.2671C53.4083 27.1847 53.284 27.4512 53.1414 27.7079C53.0026 28.0326 52.8247 28.337 52.6121 28.6138C52.5396 28.7266 52.4353 28.8125 52.3139 28.8595C52.1925 28.9064 52.0601 28.912 51.9355 28.8754C51.8046 28.8313 51.689 28.7476 51.6031 28.6347C51.5171 28.5218 51.4647 28.3848 51.4522 28.2408C51.4223 27.9361 51.4409 27.6283 51.5075 27.3301C51.7441 26.2754 51.6833 25.171 51.3326 24.1521C50.2556 21.0905 51.8987 17.8932 54.7568 16.6046C56.339 15.9205 58.0931 15.8136 59.7397 16.3009C61.3863 16.7882 62.8305 17.8416 63.8421 19.2932C64.3584 20.1143 64.7107 21.0373 64.8777 22.0061ZM55.9397 20.5043C55.9044 20.295 55.8291 20.0954 55.7184 19.9176C55.6077 19.7398 55.4638 19.5875 55.2954 19.4701C55.1271 19.3526 54.9378 19.2723 54.7392 19.2341C54.5405 19.1959 54.3365 19.2006 54.1396 19.2479C53.9426 19.2952 53.7569 19.3841 53.5936 19.5093C53.4303 19.6344 53.2929 19.7931 53.1897 19.9759C53.0864 20.1586 53.0195 20.3615 52.993 20.5722C52.9665 20.783 52.981 20.9972 53.0355 21.2019C53.1389 21.5899 53.38 21.9212 53.7091 22.1272C54.0381 22.3332 54.4299 22.3981 54.8031 22.3084C55.1764 22.2188 55.5026 21.9814 55.7141 21.6456C55.9257 21.3097 56.0065 20.9011 55.9397 20.5043V20.5043ZM60.6158 21.2794C60.5509 20.9758 60.4015 20.6994 60.1867 20.4855C59.9718 20.2717 59.7012 20.1302 59.4095 20.0791C59.1178 20.028 58.8183 20.0696 58.5492 20.1986C58.2801 20.3276 58.0537 20.5382 57.8989 20.8033C57.744 21.0685 57.6679 21.3762 57.6801 21.6872C57.6923 21.9981 57.7923 22.2982 57.9674 22.549C58.1424 22.7999 58.3846 22.99 58.6629 23.0952C58.9412 23.2004 59.2429 23.2159 59.5296 23.1397C59.7175 23.0936 59.8948 23.0087 60.0514 22.89C60.2079 22.7713 60.3405 22.6211 60.4415 22.4481C60.5426 22.2751 60.61 22.0828 60.6399 21.8821C60.6698 21.6815 60.6616 21.4767 60.6158 21.2794V21.2794ZM57.3204 24.2975C57.2422 24.1182 57.1409 23.8469 57.0074 23.5902C56.9562 23.4793 56.8806 23.3827 56.787 23.3085C56.6934 23.2342 56.5844 23.1844 56.4689 23.1632C56.3535 23.1419 56.2349 23.1497 56.1229 23.1861C56.0109 23.2224 55.9086 23.2862 55.8246 23.3722C55.6403 23.5412 55.468 23.7241 55.3091 23.9196C55.2255 24.0187 55.1675 24.1387 55.1405 24.2681C55.1135 24.3975 55.1184 24.532 55.1549 24.6588C55.1914 24.7857 55.2581 24.9005 55.3488 24.9925C55.4394 25.0844 55.551 25.1503 55.6727 25.184C55.9535 25.2627 56.2397 25.3177 56.5288 25.3487C56.6552 25.3627 56.7829 25.3428 56.9001 25.2909C57.0173 25.2391 57.1201 25.1569 57.1991 25.0521C57.278 24.9472 57.3305 24.8231 57.3517 24.6912C57.373 24.5592 57.3622 24.4238 57.3204 24.2975V24.2975Z" fill="white"/>
</g>
<g filter="url(#filter21_d_56_52)">
<path d="M75.8116 23.4675C75.8653 23.5816 75.9071 23.6958 75.9787 23.8042C76.0503 23.9126 75.9369 23.9697 75.7042 23.9954C75.4715 24.021 75.4417 23.9354 75.4238 23.8498C75.3288 23.6317 75.1951 23.4179 75.024 23.2107C74.9584 23.0965 75.024 23.0366 75.2627 23.0081C75.5013 22.9795 75.5968 23.0281 75.6386 23.1308C75.6804 23.2335 75.752 23.3562 75.8057 23.4675H75.8116Z" fill="#404040"/>
</g>
<g filter="url(#filter22_d_56_52)">
<path d="M55.977 21.2383C56.0442 21.6175 55.963 22.008 55.7501 22.329C55.5373 22.6499 55.2092 22.8767 54.8337 22.9624C54.4583 23.0481 54.0642 22.9861 53.7333 22.7892C53.4023 22.5924 53.1597 22.2758 53.0557 21.9049C53.0008 21.7093 52.9863 21.5046 53.013 21.3032C53.0396 21.1018 53.1069 20.9079 53.2108 20.7333C53.3146 20.5586 53.4529 20.4069 53.6171 20.2874C53.7814 20.1678 53.9682 20.0828 54.1663 20.0376C54.3643 19.9924 54.5695 19.9879 54.7694 20.0244C54.9693 20.0609 55.1596 20.1376 55.329 20.2499C55.4983 20.3621 55.643 20.5077 55.7544 20.6776C55.8658 20.8475 55.9415 21.0382 55.977 21.2383V21.2383Z" fill="#040404"/>
</g>
<g filter="url(#filter23_d_56_52)">
<path d="M60.9578 21.1666C61.0041 21.3563 61.0124 21.5533 60.9822 21.7462C60.9519 21.9391 60.8838 22.1241 60.7817 22.2904C60.6797 22.4568 60.5456 22.6012 60.3875 22.7153C60.2293 22.8295 60.0501 22.9111 59.8602 22.9554C59.5715 23.0275 59.268 23.0119 58.9882 22.9105C58.7084 22.8092 58.4652 22.6267 58.2894 22.3863C58.1136 22.1459 58.0133 21.8585 58.0012 21.5608C57.9892 21.263 58.0659 20.9685 58.2217 20.7146C58.3775 20.4607 58.6052 20.2591 58.8759 20.1354C59.1465 20.0117 59.4478 19.9715 59.7414 20.02C60.0349 20.0685 60.3074 20.2034 60.524 20.4076C60.7407 20.6118 60.8917 20.8761 60.9578 21.1666V21.1666Z" fill="#040404"/>
</g>
<g filter="url(#filter24_d_56_52)">
<path d="M56.9623 24.0403C57 24.1561 57.0096 24.2804 56.9903 24.4014C56.9709 24.5223 56.9231 24.636 56.8516 24.7315C56.78 24.8271 56.6869 24.9014 56.5812 24.9474C56.4755 24.9934 56.3606 25.0096 56.2474 24.9945C55.9909 24.9664 55.7368 24.9164 55.4876 24.845C55.3795 24.8144 55.2806 24.7546 55.2001 24.6711C55.1196 24.5877 55.0604 24.4834 55.028 24.3683C54.9957 24.2532 54.9912 24.131 55.0152 24.0136C55.0392 23.8961 55.0907 23.7872 55.1649 23.6973C55.3059 23.5198 55.4588 23.3537 55.6224 23.2003C55.697 23.1223 55.7877 23.0644 55.8871 23.0314C55.9866 22.9984 56.0918 22.9913 56.1943 23.0106C56.2968 23.0299 56.3935 23.0751 56.4766 23.1425C56.5597 23.2099 56.6267 23.2975 56.6722 23.3982C56.803 23.6313 56.8928 23.8775 56.9623 24.0403Z" fill="#040404"/>
</g>
<defs>
<filter id="filter0_d_56_52" x="0" y="0" width="43" height="75" filterUnits="userSpaceOnUse" color-interpolation-filters="sRGB">
<feFlood flood-opacity="0" result="BackgroundImageFix"/>
<feColorMatrix in="SourceAlpha" type="matrix" values="0 0 0 0 0 0 0 0 0 0 0 0 0 0 0 0 0 0 127 0" result="hardAlpha"/>
<feOffset dx="3" dy="11"/>
<feGaussianBlur stdDeviation="3.5"/>
<feComposite in2="hardAlpha" operator="out"/>
<feColorMatrix type="matrix" values="0 0 0 0 0 0 0 0 0 0 0 0 0 0 0 0 0 0 0.25 0"/>
<feBlend mode="normal" in2="BackgroundImageFix" result="effect1_dropShadow_56_52"/>
<feBlend mode="normal" in="SourceGraphic" in2="effect1_dropShadow_56_52" result="shape"/>
</filter>
<filter id="filter1_d_56_52" x="178" y="0" width="47" height="75" filterUnits="userSpaceOnUse" color-interpolation-filters="sRGB">
<feFlood flood-opacity="0" result="BackgroundImageFix"/>
<feColorMatrix in="SourceAlpha" type="matrix" values="0 0 0 0 0 0 0 0 0 0 0 0 0 0 0 0 0 0 127 0" result="hardAlpha"/>
<feOffset dx="3" dy="11"/>
<feGaussianBlur stdDeviation="3.5"/>
<feComposite in2="hardAlpha" operator="out"/>
<feColorMatrix type="matrix" values="0 0 0 0 0 0 0 0 0 0 0 0 0 0 0 0 0 0 0.25 0"/>
<feBlend mode="normal" in2="BackgroundImageFix" result="effect1_dropShadow_56_52"/>
<feBlend mode="normal" in="SourceGraphic" in2="effect1_dropShadow_56_52" result="shape"/>
</filter>
<filter id="filter2_d_56_52" x="101" y="0" width="39" height="67" filterUnits="userSpaceOnUse" color-interpolation-filters="sRGB">
<feFlood flood-opacity="0" result="BackgroundImageFix"/>
<feColorMatrix in="SourceAlpha" type="matrix" values="0 0 0 0 0 0 0 0 0 0 0 0 0 0 0 0 0 0 127 0" result="hardAlpha"/>
<feOffset dx="3" dy="11"/>
<feGaussianBlur stdDeviation="3.5"/>
<feComposite in2="hardAlpha" operator="out"/>
<feColorMatrix type="matrix" values="0 0 0 0 0 0 0 0 0 0 0 0 0 0 0 0 0 0 0.25 0"/>
<feBlend mode="normal" in2="BackgroundImageFix" result="effect1_dropShadow_56_52"/>
<feBlend mode="normal" in="SourceGraphic" in2="effect1_dropShadow_56_52" result="shape"/>
</filter>
<filter id="filter3_d_56_52" x="68" y="0" width="41" height="67" filterUnits="userSpaceOnUse" color-interpolation-filters="sRGB">
<feFlood flood-opacity="0" result="BackgroundImageFix"/>
<feColorMatrix in="SourceAlpha" type="matrix" values="0 0 0 0 0 0 0 0 0 0 0 0 0 0 0 0 0 0 127 0" result="hardAlpha"/>
<feOffset dx="3" dy="11"/>
<feGaussianBlur stdDeviation="3.5"/>
<feComposite in2="hardAlpha" operator="out"/>
<feColorMatrix type="matrix" values="0 0 0 0 0 0 0 0 0 0 0 0 0 0 0 0 0 0 0.25 0"/>
<feBlend mode="normal" in2="BackgroundImageFix" result="effect1_dropShadow_56_52"/>
<feBlend mode="normal" in="SourceGraphic" in2="effect1_dropShadow_56_52" result="shape"/>
</filter>
<filter id="filter4_d_56_52" x="132" y="0" width="38" height="69" filterUnits="userSpaceOnUse" color-interpolation-filters="sRGB">
<feFlood flood-opacity="0" result="BackgroundImageFix"/>
<feColorMatrix in="SourceAlpha" type="matrix" values="0 0 0 0 0 0 0 0 0 0 0 0 0 0 0 0 0 0 127 0" result="hardAlpha"/>
<feOffset dx="3" dy="11"/>
<feGaussianBlur stdDeviation="3.5"/>
<feComposite in2="hardAlpha" operator="out"/>
<feColorMatrix type="matrix" values="0 0 0 0 0 0 0 0 0 0 0 0 0 0 0 0 0 0 0.25 0"/>
<feBlend mode="normal" in2="BackgroundImageFix" result="effect1_dropShadow_56_52"/>
<feBlend mode="normal" in="SourceGraphic" in2="effect1_dropShadow_56_52" result="shape"/>
</filter>
<filter id="filter5_d_56_52" x="163" y="0" width="23" height="70" filterUnits="userSpaceOnUse" color-interpolation-filters="sRGB">
<feFlood flood-opacity="0" result="BackgroundImageFix"/>
<feColorMatrix in="SourceAlpha" type="matrix" values="0 0 0 0 0 0 0 0 0 0 0 0 0 0 0 0 0 0 127 0" result="hardAlpha"/>
<feOffset dx="3" dy="11"/>
<feGaussianBlur stdDeviation="3.5"/>
<feComposite in2="hardAlpha" operator="out"/>
<feColorMatrix type="matrix" values="0 0 0 0 0 0 0 0 0 0 0 0 0 0 0 0 0 0 0.25 0"/>
<feBlend mode="normal" in2="BackgroundImageFix" result="effect1_dropShadow_56_52"/>
<feBlend mode="normal" in="SourceGraphic" in2="effect1_dropShadow_56_52" result="shape"/>
</filter>
<filter id="filter6_d_56_52" x="3" y="0" width="42" height="42" filterUnits="userSpaceOnUse" color-interpolation-filters="sRGB">
<feFlood flood-opacity="0" result="BackgroundImageFix"/>
<feColorMatrix in="SourceAlpha" type="matrix" values="0 0 0 0 0 0 0 0 0 0 0 0 0 0 0 0 0 0 127 0" result="hardAlpha"/>
<feOffset dx="3" dy="11"/>
<feGaussianBlur stdDeviation="3.5"/>
<feComposite in2="hardAlpha" operator="out"/>
<feColorMatrix type="matrix" values="0 0 0 0 0 0 0 0 0 0 0 0 0 0 0 0 0 0 0.25 0"/>
<feBlend mode="normal" in2="BackgroundImageFix" result="effect1_dropShadow_56_52"/>
<feBlend mode="normal" in="SourceGraphic" in2="effect1_dropShadow_56_52" result="shape"/>
</filter>
<filter id="filter7_d_56_52" x="73" y="12" width="51" height="29" filterUnits="userSpaceOnUse" color-interpolation-filters="sRGB">
<feFlood flood-opacity="0" result="BackgroundImageFix"/>
<feColorMatrix in="SourceAlpha" type="matrix" values="0 0 0 0 0 0 0 0 0 0 0 0 0 0 0 0 0 0 127 0" result="hardAlpha"/>
<feOffset dx="3" dy="11"/>
<feGaussianBlur stdDeviation="3.5"/>
<feComposite in2="hardAlpha" operator="out"/>
<feColorMatrix type="matrix" values="0 0 0 0 0 0 0 0 0 0 0 0 0 0 0 0 0 0 0.25 0"/>
<feBlend mode="normal" in2="BackgroundImageFix" result="effect1_dropShadow_56_52"/>
<feBlend mode="normal" in="SourceGraphic" in2="effect1_dropShadow_56_52" result="shape"/>
</filter>
<filter id="filter8_d_56_52" x="67" y="17" width="15" height="19" filterUnits="userSpaceOnUse" color-interpolation-filters="sRGB">
<feFlood flood-opacity="0" result="BackgroundImageFix"/>
<feColorMatrix in="SourceAlpha" type="matrix" values="0 0 0 0 0 0 0 0 0 0 0 0 0 0 0 0 0 0 127 0" result="hardAlpha"/>
<feOffset dx="3" dy="11"/>
<feGaussianBlur stdDeviation="3.5"/>
<feComposite in2="hardAlpha" operator="out"/>
<feColorMatrix type="matrix" values="0 0 0 0 0 0 0 0 0 0 0 0 0 0 0 0 0 0 0.25 0"/>
<feBlend mode="normal" in2="BackgroundImageFix" result="effect1_dropShadow_56_52"/>
<feBlend mode="normal" in="SourceGraphic" in2="effect1_dropShadow_56_52" result="shape"/>
</filter>
<filter id="filter9_d_56_52" x="54" y="14" width="15" height="19" filterUnits="userSpaceOnUse" color-interpolation-filters="sRGB">
<feFlood flood-opacity="0" result="BackgroundImageFix"/>
<feColorMatrix in="SourceAlpha" type="matrix" values="0 0 0 0 0 0 0 0 0 0 0 0 0 0 0 0 0 0 127 0" result="hardAlpha"/>
<feOffset dx="3" dy="11"/>
<feGaussianBlur stdDeviation="3.5"/>
<feComposite in2="hardAlpha" operator="out"/>
<feColorMatrix type="matrix" values="0 0 0 0 0 0 0 0 0 0 0 0 0 0 0 0 0 0 0.25 0"/>
<feBlend mode="normal" in2="BackgroundImageFix" result="effect1_dropShadow_56_52"/>
<feBlend mode="normal" in="SourceGraphic" in2="effect1_dropShadow_56_52" result="shape"/>
</filter>
<filter id="filter10_d_56_52" x="57" y="14" width="16" height="19" filterUnits="userSpaceOnUse" color-interpolation-filters="sRGB">
<feFlood flood-opacity="0" result="BackgroundImageFix"/>
<feColorMatrix in="SourceAlpha" type="matrix" values="0 0 0 0 0 0 0 0 0 0 0 0 0 0 0 0 0 0 127 0" result="hardAlpha"/>
<feOffset dx="3" dy="11"/>
<feGaussianBlur stdDeviation="3.5"/>
<feComposite in2="hardAlpha" operator="out"/>
<feColorMatrix type="matrix" values="0 0 0 0 0 0 0 0 0 0 0 0 0 0 0 0 0 0 0.25 0"/>
<feBlend mode="normal" in2="BackgroundImageFix" result="effect1_dropShadow_56_52"/>
<feBlend mode="normal" in="SourceGraphic" in2="effect1_dropShadow_56_52" result="shape"/>
</filter>
<filter id="filter11_d_56_52" x="69" y="20" width="16" height="19" filterUnits="userSpaceOnUse" color-interpolation-filters="sRGB">
<feFlood flood-opacity="0" result="BackgroundImageFix"/>
<feColorMatrix in="SourceAlpha" type="matrix" values="0 0 0 0 0 0 0 0 0 0 0 0 0 0 0 0 0 0 127 0" result="hardAlpha"/>
<feOffset dx="3" dy="11"/>
<feGaussianBlur stdDeviation="3.5"/>
<feComposite in2="hardAlpha" operator="out"/>
<feColorMatrix type="matrix" values="0 0 0 0 0 0 0 0 0 0 0 0 0 0 0 0 0 0 0.25 0"/>
<feBlend mode="normal" in2="BackgroundImageFix" result="effect1_dropShadow_56_52"/>
<feBlend mode="normal" in="SourceGraphic" in2="effect1_dropShadow_56_52" result="shape"/>
</filter>
<filter id="filter12_d_56_52" x="40" y="16" width="16" height="19" filterUnits="userSpaceOnUse" color-interpolation-filters="sRGB">
<feFlood flood-opacity="0" result="BackgroundImageFix"/>
<feColorMatrix in="SourceAlpha" type="matrix" values="0 0 0 0 0 0 0 0 0 0 0 0 0 0 0 0 0 0 127 0" result="hardAlpha"/>
<feOffset dx="3" dy="11"/>
<feGaussianBlur stdDeviation="3.5"/>
<feComposite in2="hardAlpha" operator="out"/>
<feColorMatrix type="matrix" values="0 0 0 0 0 0 0 0 0 0 0 0 0 0 0 0 0 0 0.25 0"/>
<feBlend mode="normal" in2="BackgroundImageFix" result="effect1_dropShadow_56_52"/>
<feBlend mode="normal" in="SourceGraphic" in2="effect1_dropShadow_56_52" result="shape"/>
</filter>
<filter id="filter13_d_56_52" x="64" y="15" width="15" height="20" filterUnits="userSpaceOnUse" color-interpolation-filters="sRGB">
<feFlood flood-opacity="0" result="BackgroundImageFix"/>
<feColorMatrix in="SourceAlpha" type="matrix" values="0 0 0 0 0 0 0 0 0 0 0 0 0 0 0 0 0 0 127 0" result="hardAlpha"/>
<feOffset dx="3" dy="11"/>
<feGaussianBlur stdDeviation="3.5"/>
<feComposite in2="hardAlpha" operator="out"/>
<feColorMatrix type="matrix" values="0 0 0 0 0 0 0 0 0 0 0 0 0 0 0 0 0 0 0.25 0"/>
<feBlend mode="normal" in2="BackgroundImageFix" result="effect1_dropShadow_56_52"/>
<feBlend mode="normal" in="SourceGraphic" in2="effect1_dropShadow_56_52" result="shape"/>
</filter>
<filter id="filter14_d_56_52" x="37" y="17" width="16" height="20" filterUnits="userSpaceOnUse" color-interpolation-filters="sRGB">
<feFlood flood-opacity="0" result="BackgroundImageFix"/>
<feColorMatrix in="SourceAlpha" type="matrix" values="0 0 0 0 0 0 0 0 0 0 0 0 0 0 0 0 0 0 127 0" result="hardAlpha"/>
<feOffset dx="3" dy="11"/>
<feGaussianBlur stdDeviation="3.5"/>
<feComposite in2="hardAlpha" operator="out"/>
<feColorMatrix type="matrix" values="0 0 0 0 0 0 0 0 0 0 0 0 0 0 0 0 0 0 0.25 0"/>
<feBlend mode="normal" in2="BackgroundImageFix" result="effect1_dropShadow_56_52"/>
<feBlend mode="normal" in="SourceGraphic" in2="effect1_dropShadow_56_52" result="shape"/>
</filter>
<filter id="filter15_d_56_52" x="50" y="14" width="16" height="19" filterUnits="userSpaceOnUse" color-interpolation-filters="sRGB">
<feFlood flood-opacity="0" result="BackgroundImageFix"/>
<feColorMatrix in="SourceAlpha" type="matrix" values="0 0 0 0 0 0 0 0 0 0 0 0 0 0 0 0 0 0 127 0" result="hardAlpha"/>
<feOffset dx="3" dy="11"/>
<feGaussianBlur stdDeviation="3.5"/>
<feComposite in2="hardAlpha" operator="out"/>
<feColorMatrix type="matrix" values="0 0 0 0 0 0 0 0 0 0 0 0 0 0 0 0 0 0 0.25 0"/>
<feBlend mode="normal" in2="BackgroundImageFix" result="effect1_dropShadow_56_52"/>
<feBlend mode="normal" in="SourceGraphic" in2="effect1_dropShadow_56_52" result="shape"/>
</filter>
<filter id="filter16_d_56_52" x="44" y="15" width="15" height="19" filterUnits="userSpaceOnUse" color-interpolation-filters="sRGB">
<feFlood flood-opacity="0" result="BackgroundImageFix"/>
<feColorMatrix in="SourceAlpha" type="matrix" values="0 0 0 0 0 0 0 0 0 0 0 0 0 0 0 0 0 0 127 0" result="hardAlpha"/>
<feOffset dx="3" dy="11"/>
<feGaussianBlur stdDeviation="3.5"/>
<feComposite in2="hardAlpha" operator="out"/>
<feColorMatrix type="matrix" values="0 0 0 0 0 0 0 0 0 0 0 0 0 0 0 0 0 0 0.25 0"/>
<feBlend mode="normal" in2="BackgroundImageFix" result="effect1_dropShadow_56_52"/>
<feBlend mode="normal" in="SourceGraphic" in2="effect1_dropShadow_56_52" result="shape"/>
</filter>
<filter id="filter17_d_56_52" x="35" y="20" width="15" height="19" filterUnits="userSpaceOnUse" color-interpolation-filters="sRGB">
<feFlood flood-opacity="0" result="BackgroundImageFix"/>
<feColorMatrix in="SourceAlpha" type="matrix" values="0 0 0 0 0 0 0 0 0 0 0 0 0 0 0 0 0 0 127 0" result="hardAlpha"/>
<feOffset dx="3" dy="11"/>
<feGaussianBlur stdDeviation="3.5"/>
<feComposite in2="hardAlpha" operator="out"/>
<feColorMatrix type="matrix" values="0 0 0 0 0 0 0 0 0 0 0 0 0 0 0 0 0 0 0.25 0"/>
<feBlend mode="normal" in2="BackgroundImageFix" result="effect1_dropShadow_56_52"/>
<feBlend mode="normal" in="SourceGraphic" in2="effect1_dropShadow_56_52" result="shape"/>
</filter>
<filter id="filter18_d_56_52" x="0" y="0" width="45" height="47" filterUnits="userSpaceOnUse" color-interpolation-filters="sRGB">
<feFlood flood-opacity="0" result="BackgroundImageFix"/>
<feColorMatrix in="SourceAlpha" type="matrix" values="0 0 0 0 0 0 0 0 0 0 0 0 0 0 0 0 0 0 127 0" result="hardAlpha"/>
<feOffset dx="3" dy="11"/>
<feGaussianBlur stdDeviation="3.5"/>
<feComposite in2="hardAlpha" operator="out"/>
<feColorMatrix type="matrix" values="0 0 0 0 0 0 0 0 0 0 0 0 0 0 0 0 0 0 0.25 0"/>
<feBlend mode="normal" in2="BackgroundImageFix" result="effect1_dropShadow_56_52"/>
<feBlend mode="normal" in="SourceGraphic" in2="effect1_dropShadow_56_52" result="shape"/>
</filter>
<filter id="filter19_d_56_52" x="31" y="12" width="93" height="53" filterUnits="userSpaceOnUse" color-interpolation-filters="sRGB">
<feFlood flood-opacity="0" result="BackgroundImageFix"/>
<feColorMatrix in="SourceAlpha" type="matrix" values="0 0 0 0 0 0 0 0 0 0 0 0 0 0 0 0 0 0 127 0" result="hardAlpha"/>
<feOffset dx="3" dy="11"/>
<feGaussianBlur stdDeviation="3.5"/>
<feComposite in2="hardAlpha" operator="out"/>
<feColorMatrix type="matrix" values="0 0 0 0 0 0 0 0 0 0 0 0 0 0 0 0 0 0 0.25 0"/>
<feBlend mode="normal" in2="BackgroundImageFix" result="effect1_dropShadow_56_52"/>
<feBlend mode="normal" in="SourceGraphic" in2="effect1_dropShadow_56_52" result="shape"/>
</filter>
<filter id="filter20_d_56_52" x="47" y="16" width="28" height="32" filterUnits="userSpaceOnUse" color-interpolation-filters="sRGB">
<feFlood flood-opacity="0" result="BackgroundImageFix"/>
<feColorMatrix in="SourceAlpha" type="matrix" values="0 0 0 0 0 0 0 0 0 0 0 0 0 0 0 0 0 0 127 0" result="hardAlpha"/>
<feOffset dx="3" dy="11"/>
<feGaussianBlur stdDeviation="3.5"/>
<feComposite in2="hardAlpha" operator="out"/>
<feColorMatrix type="matrix" values="0 0 0 0 0 0 0 0 0 0 0 0 0 0 0 0 0 0 0.25 0"/>
<feBlend mode="normal" in2="BackgroundImageFix" result="effect1_dropShadow_56_52"/>
<feBlend mode="normal" in="SourceGraphic" in2="effect1_dropShadow_56_52" result="shape"/>
</filter>
<filter id="filter21_d_56_52" x="71" y="23" width="15" height="19" filterUnits="userSpaceOnUse" color-interpolation-filters="sRGB">
<feFlood flood-opacity="0" result="BackgroundImageFix"/>
<feColorMatrix in="SourceAlpha" type="matrix" values="0 0 0 0 0 0 0 0 0 0 0 0 0 0 0 0 0 0 127 0" result="hardAlpha"/>
<feOffset dx="3" dy="11"/>
<feGaussianBlur stdDeviation="3.5"/>
<feComposite in2="hardAlpha" operator="out"/>
<feColorMatrix type="matrix" values="0 0 0 0 0 0 0 0 0 0 0 0 0 0 0 0 0 0 0.25 0"/>
<feBlend mode="normal" in2="BackgroundImageFix" result="effect1_dropShadow_56_52"/>
<feBlend mode="normal" in="SourceGraphic" in2="effect1_dropShadow_56_52" result="shape"/>
</filter>
<filter id="filter22_d_56_52" x="49" y="20" width="17" height="21" filterUnits="userSpaceOnUse" color-interpolation-filters="sRGB">
<feFlood flood-opacity="0" result="BackgroundImageFix"/>
<feColorMatrix in="SourceAlpha" type="matrix" values="0 0 0 0 0 0 0 0 0 0 0 0 0 0 0 0 0 0 127 0" result="hardAlpha"/>
<feOffset dx="3" dy="11"/>
<feGaussianBlur stdDeviation="3.5"/>
<feComposite in2="hardAlpha" operator="out"/>
<feColorMatrix type="matrix" values="0 0 0 0 0 0 0 0 0 0 0 0 0 0 0 0 0 0 0.25 0"/>
<feBlend mode="normal" in2="BackgroundImageFix" result="effect1_dropShadow_56_52"/>
<feBlend mode="normal" in="SourceGraphic" in2="effect1_dropShadow_56_52" result="shape"/>
</filter>
<filter id="filter23_d_56_52" x="54" y="20" width="17" height="21" filterUnits="userSpaceOnUse" color-interpolation-filters="sRGB">
<feFlood flood-opacity="0" result="BackgroundImageFix"/>
<feColorMatrix in="SourceAlpha" type="matrix" values="0 0 0 0 0 0 0 0 0 0 0 0 0 0 0 0 0 0 127 0" result="hardAlpha"/>
<feOffset dx="3" dy="11"/>
<feGaussianBlur stdDeviation="3.5"/>
<feComposite in2="hardAlpha" operator="out"/>
<feColorMatrix type="matrix" values="0 0 0 0 0 0 0 0 0 0 0 0 0 0 0 0 0 0 0.25 0"/>
<feBlend mode="normal" in2="BackgroundImageFix" result="effect1_dropShadow_56_52"/>
<feBlend mode="normal" in="SourceGraphic" in2="effect1_dropShadow_56_52" result="shape"/>
</filter>
<filter id="filter24_d_56_52" x="51" y="23" width="16" height="20" filterUnits="userSpaceOnUse" color-interpolation-filters="sRGB">
<feFlood flood-opacity="0" result="BackgroundImageFix"/>
<feColorMatrix in="SourceAlpha" type="matrix" values="0 0 0 0 0 0 0 0 0 0 0 0 0 0 0 0 0 0 127 0" result="hardAlpha"/>
<feOffset dx="3" dy="11"/>
<feGaussianBlur stdDeviation="3.5"/>
<feComposite in2="hardAlpha" operator="out"/>
<feColorMatrix type="matrix" values="0 0 0 0 0 0 0 0 0 0 0 0 0 0 0 0 0 0 0.25 0"/>
<feBlend mode="normal" in2="BackgroundImageFix" result="effect1_dropShadow_56_52"/>
<feBlend mode="normal" in="SourceGraphic" in2="effect1_dropShadow_56_52" result="shape"/>
</filter>
</defs>
</svg>
